<svg width="1366" height="60" viewBox="0 0 1366 60" fill="none" xmlns="http://www.w3.org/2000/svg">
<path d="M564.079 8.09816C350.593 -4.40656 -102.259 5.25945 -302 11.6555V39.2522H1663.92V8.09816C1559.66 -8.11486 1258.69 3.71432 1121.24 11.6555C1024.47 15.6801 777.564 20.6029 564.079 8.09816Z" fill="#1B625E"/>
<path d="M79.9905 17.5697C-91.3394 11.1022 -237.901 18.2919 -299.428 26.7353V44.4H1666.71V8.7374C1552.77 18.4585 1300.42 32.768 1202.52 12.237C1080.15 -13.4267 692.97 12.2518 587.009 17.5698C454.902 24.2 322.795 26.7354 79.9905 17.5697Z" fill="#C85B56"/>
<path d="M303.743 14.6779C176.972 12.5388 -192.126 28.7281 -300.714 35.4837V44H1664.14V25.8893C1612.81 23.302 1485.66 17.4376 1387.65 14.6779C1265.15 11.2282 976.34 21.685 839.464 29.3389C702.588 36.9929 465.066 17.4 303.743 14.6779Z" fill="#F37042"/>
<path d="M1187.98 55.5939C1311.23 58.5606 1559.35 51.5559 1668 47.6827V42.8H-297.975V53.1835C-246.617 54.6668 -119.387 58.0291 -21.3275 59.6113C101.246 61.5891 390.219 55.5939 527.173 51.2057C664.127 46.8174 1033.9 51.8855 1187.98 55.5939Z" fill="#F37042"/>
</svg>
